<?xml version="1.0" standalone="no"?>
<!DOCTYPE svg PUBLIC "-//W3C//DTD SVG 20010904//EN"
 "http://www.w3.org/TR/2001/REC-SVG-20010904/DTD/svg10.dtd">
<svg version="1.0" xmlns="http://www.w3.org/2000/svg"
 width="512.000000pt" height="512.000000pt" viewBox="0 0 512.000000 512.000000"
 preserveAspectRatio="xMidYMid meet">

<g transform="translate(0.000000,512.000000) scale(0.100000,-0.100000)"
fill="#000000" stroke="none">
<path d="M2008 4270 c-45 -24 -72 -61 -91 -125 -13 -46 -16 -50 -48 -52 -19
-2 -228 -9 -466 -17 -464 -16 -461 -15 -515 -73 -41 -43 -50 -78 -47 -187 3
-90 1 -100 -17 -108 -10 -4 -165 -44 -344 -88 -179 -45 -339 -90 -357 -101
-38 -24 -69 -71 -78 -119 -4 -27 60 -298 279 -1170 353 -1401 326 -1304 362
-1342 35 -37 81 -58 129 -58 33 0 546 126 1384 339 314 80 359 94 394 122 l40
32 200 -42 201 -41 335 -177 c281 -148 344 -177 386 -180 60 -5 106 17 146 68
37 47 1165 2197 1173 2236 10 45 -10 109 -47 148 -45 48 -1564 846 -1622 853
-52 5 -124 -24 -151 -62 -52 -73 14 -79 -589 49 -297 63 -558 115 -580 114
-22 0 -57 -9 -77 -19z m242 -127 l135 -28 -70 -6 c-38 -4 -118 -7 -177 -8
-116 -1 -123 3 -92 47 20 29 40 28 204 -5z m1230 -114 c42 -22 62 -37 47 -34
-16 3 -63 13 -105 21 -42 9 -79 18 -81 20 -9 8 23 34 43 34 11 -1 55 -19 96
-41z m-130 -120 c264 -55 442 -97 453 -107 9 -8 17 -25 17 -37 0 -19 -493
-2363 -506 -2408 -3 -10 -15 -24 -27 -32 -19 -12 -38 -10 -162 16 -77 16 -150
31 -162 34 l-23 5 20 38 c11 20 20 54 20 74 0 44 4 45 95 23 78 -19 119 -19
136 1 7 8 113 488 235 1066 165 778 220 1056 214 1074 -11 28 -2 26 -400 109
-173 37 -323 68 -332 71 -11 3 -19 19 -22 47 -13 111 -14 126 -2 122 6 -2 207
-45 446 -96z m-585 70 c18 -19 21 -92 57 -1147 20 -620 37 -1180 37 -1244 1
-145 -2 -148 -126 -148 l-82 0 -11 43 c-6 23 -15 56 -20 74 -10 39 -6 43 41
43 60 0 69 17 69 128 -1 53 -16 542 -34 1086 l-33 989 -23 19 c-20 16 -34 18
-84 14 -34 -3 -160 -8 -281 -12 l-220 -6 -13 34 c-16 44 -60 86 -108 103 -22
8 -37 15 -34 16 7 3 604 25 736 27 100 2 113 0 129 -19z m-1275 -104 c-206
-51 -410 -102 -452 -113 l-78 -20 0 82 c0 129 -26 119 342 132 172 6 369 11
438 12 l125 1 -375 -94z m431 -55 c17 -25 609 -2363 609 -2407 0 -13 -10 -29
-22 -37 -25 -16 -1658 -428 -1696 -428 -13 0 -30 6 -37 13 -8 8 -150 554 -315
1214 -277 1098 -301 1202 -288 1225 12 23 72 40 848 236 459 117 846 211 859
210 13 0 32 -12 42 -26z m2559 -315 c239 -125 445 -237 458 -248 12 -11 22
-28 22 -36 0 -19 -1134 -2178 -1157 -2203 -9 -10 -26 -18 -38 -18 -12 0 -112
48 -223 106 l-201 106 33 29 c19 16 39 44 46 61 8 18 14 34 15 36 2 2 63 -29
137 -68 133 -69 176 -82 196 -57 28 33 1002 1900 1002 1920 0 12 -4 28 -9 35
-4 7 -194 111 -422 231 -467 246 -420 207 -404 333 l8 58 51 -29 c28 -16 247
-131 486 -256z m-1247 143 c223 -47 297 -66 297 -77 0 -13 -250 -1205 -254
-1207 -2 -1 -321 67 -322 69 -1 1 -9 245 -18 542 -9 297 -19 584 -22 638 -5
78 -3 97 7 97 8 1 148 -27 312 -62z m-118 -1375 c72 -14 131 -27 133 -28 4 -3
-125 -605 -130 -611 -5 -4 -127 21 -133 28 -3 3 -25 539 -25 611 0 15 6 27 13
27 6 0 71 -12 142 -27z"/>
<path d="M1061 3479 c-527 -133 -710 -183 -725 -198 -20 -20 -19 -20 245
-1072 234 -932 267 -1053 287 -1067 22 -14 72 -3 745 167 429 108 728 188 739
198 10 9 18 23 18 31 0 18 -482 1944 -511 2043 -19 67 -31 80 -72 78 -12 -1
-339 -82 -726 -180z m844 -568 c103 -414 143 -586 134 -591 -27 -17 -1271
-322 -1278 -314 -12 14 -303 1186 -296 1193 4 3 293 79 643 167 557 141 638
159 644 145 4 -9 73 -279 153 -600z"/>
</g>
</svg>
